HIERARCHY
ROOT Hips
{
	OFFSET 0.000000 0.000000 0.000000
	CHANNELS 6 Xposition Yposition Zposition Zrotation Yrotation Xrotation 
	JOINT LHipJoint
	{
		OFFSET 0.000000 0.000000 0.000000
		CHANNELS 3 Zrotation Yrotation Xrotation
		JOINT LeftUpLeg
		{
			OFFSET 1.363060 -1.794630 0.839290
			CHANNELS 3 Zrotation Yrotation Xrotation
			JOINT LeftLeg
			{
				OFFSET 2.448110 -6.726130 0.000000
				CHANNELS 3 Zrotation Yrotation Xrotation
				JOINT LeftFoot
				{
					OFFSET 2.562200 -7.039590 0.000000
					CHANNELS 3 Zrotation Yrotation Xrotation
					JOINT LeftToeBase
					{
						OFFSET 0.157640 -0.433110 2.322550
						CHANNELS 3 Zrotation Yrotation Xrotation
						End Site
						{
							OFFSET 0.000000 0.000000 0.000000
						}
					}
				}
			}
		}
	}
	JOINT RHipJoint
	{
		OFFSET 0.000000 0.000000 0.000000
		CHANNELS 3 Zrotation Yrotation Xrotation
		JOINT RightUpLeg
		{
			OFFSET -1.305520 -1.794630 0.839290
			CHANNELS 3 Zrotation Yrotation Xrotation
			JOINT RightLeg
			{
				OFFSET -2.542530 -6.985550 0.000000
				CHANNELS 3 Zrotation Yrotation Xrotation
				JOINT RightFoot
				{
					OFFSET -2.568260 -7.056230 0.000000
					CHANNELS 3 Zrotation Yrotation Xrotation
					JOINT RightToeBase
					{
						OFFSET -0.164730 -0.452590 2.363150
						CHANNELS 3 Zrotation Yrotation Xrotation
						End Site
						{
							OFFSET 0.000000 0.000000 0.000000
						}
					}
				}
			}
		}
	}
	JOINT LowerBack
	{
		OFFSET 0.000000 0.000000 0.000000
		CHANNELS 3 Zrotation Yrotation Xrotation
		JOINT Spine
		{
			OFFSET 0.028270 2.035590 -0.193380
			CHANNELS 3 Zrotation Yrotation Xrotation
			JOINT Spine1
			{
				OFFSET 0.056720 2.048850 -0.042750
				CHANNELS 3 Zrotation Yrotation Xrotation
				JOINT Neck
				{
					OFFSET 0.000000 0.000000 0.000000
					CHANNELS 3 Zrotation Yrotation Xrotation
					JOINT Neck1
					{
						OFFSET -0.054170 1.746240 0.172020
						CHANNELS 3 Zrotation Yrotation Xrotation
						JOINT Head
						{
							OFFSET 0.104070 1.761360 -0.123970
							CHANNELS 3 Zrotation Yrotation Xrotation
							End Site
							{
								OFFSET 0.000000 0.000000 0.000000
							}
						}
					}
				}
				JOINT LeftShoulder
				{
					OFFSET 0.000000 0.000000 0.000000
					CHANNELS 3 Zrotation Yrotation Xrotation
					JOINT LeftArm
					{
						OFFSET 3.362410 1.200890 -0.311210
						CHANNELS 3 Zrotation Yrotation Xrotation
						JOINT LeftForeArm
						{
							OFFSET 4.983000 -0.000000 -0.000000
							CHANNELS 3 Zrotation Yrotation Xrotation
							JOINT LeftHand
							{
								OFFSET 3.483560 -0.000000 -0.000000
								CHANNELS 3 Zrotation Yrotation Xrotation
								JOINT LeftFingerBase
								{
									OFFSET 0.000000 0.000000 0.000000
									CHANNELS 3 Zrotation Yrotation Xrotation
									JOINT LeftHandIndex1
									{
										OFFSET 0.715260 -0.000000 -0.000000
										CHANNELS 3 Zrotation Yrotation Xrotation
										End Site
										{
											OFFSET 0.000000 0.000000 0.000000
										}
									}
								}
								JOINT LThumb
								{
									OFFSET 0.000000 0.000000 0.000000
									CHANNELS 3 Zrotation Yrotation Xrotation
									End Site
									{
										OFFSET 0.000000 0.000000 0.000000
									}
								}
							}
						}
					}
				}
				JOINT RightShoulder
				{
					OFFSET 0.000000 0.000000 0.000000
					CHANNELS 3 Zrotation Yrotation Xrotation
					JOINT RightArm
					{
						OFFSET -3.136600 1.374050 -0.404650
						CHANNELS 3 Zrotation Yrotation Xrotation
						JOINT RightForeArm
						{
							OFFSET -5.241900 -0.000000 -0.000000
							CHANNELS 3 Zrotation Yrotation Xrotation
							JOINT RightHand
							{
								OFFSET -3.444170 -0.000000 -0.000000
								CHANNELS 3 Zrotation Yrotation Xrotation
								JOINT RightFingerBase
								{
									OFFSET 0.000000 0.000000 0.000000
									CHANNELS 3 Zrotation Yrotation Xrotation
									JOINT RightHandIndex1
									{
										OFFSET -0.622530 -0.000000 -0.000000
										CHANNELS 3 Zrotation Yrotation Xrotation
										End Site
										{
											OFFSET 0.000000 0.000000 0.000000
										}
									}
								}
								JOINT RThumb
								{
									OFFSET 0.000000 0.000000 0.000000
									CHANNELS 3 Zrotation Yrotation Xrotation
									End Site
									{
										OFFSET 0.000000 0.000000 0.000000
									}
								}
							}
						}
					}
				}
			}
		}
	}
}
MOTION
Frames: 11
Frame Time: 0.008333
53.418900 17.074985 -30.296704 -7.560078 -55.761374 4.156574 0.852989 -0.828218 -0.658755 -14.740932 7.242025 -4.985620 0.170938 8.185446 21.959816 -0.553872 4.722610 -5.422345 0.010900 -0.674700 -1.854000 -2.299931 0.657391 -1.073679 25.966980 0.132993 -6.876857 -0.903971 -11.011211 29.809752 2.060981 -10.476936 -13.202577 -0.039400 -1.281000 3.522300 3.628897 -0.501013 3.141559 1.093500 -0.581979 -1.088507 -2.116497 -0.182250 4.055904 -1.777185 -0.829651 -2.810860 6.999322 -2.175869 9.863914 0.871000 -0.727000 2.336600 -2.240954 -1.971161 -0.002211 -73.613655 3.687742 35.223080 14.388988 -29.217256 -5.869167 -0.997402 -2.291442 -26.560031 14.903050 6.955806 2.570100 -7.125000 0.000000 0.000000 -8.684400 38.752200 1.348600 4.696565 1.852191 -0.460782 75.647530 -4.081166 27.126975 -11.574625 25.830851 -4.252763 1.430226 0.790321 -0.939953 -15.310361 -3.892927 1.399600 7.125000 0.000000 0.000000 8.188200 -34.747400 2.078800 
53.420094 17.075093 -30.294425 -7.560974 -55.733551 4.157227 0.852401 -0.828074 -0.659740 -14.740465 7.262939 -4.997217 0.169948 8.185039 21.958024 -0.538699 4.667713 -5.398094 0.010900 -0.675000 -1.855100 -2.300585 0.658667 -1.075493 25.968484 0.154393 -6.867986 -0.903408 -11.010055 29.805979 2.085113 -10.552608 -13.221610 -0.037000 -1.240800 3.411700 3.660372 -0.512410 3.112619 1.096807 -0.598347 -1.085988 -2.113530 -0.190922 4.096976 -1.797417 -0.847797 -2.861841 6.997235 -2.196661 9.919013 0.873800 -0.734500 2.388700 -2.223695 -1.974831 -0.005251 -73.700807 3.500927 35.325205 14.554789 -29.362505 -5.943293 -0.993384 -2.281560 -26.630956 14.903049 6.908078 2.552200 -7.125000 0.000000 0.000000 -8.680300 38.693400 1.360500 4.690703 1.860703 -0.463068 75.621666 -4.043226 27.158367 -11.626974 25.890966 -4.277089 1.415339 0.797137 -0.933828 -15.165091 -3.909130 1.392500 7.125000 0.000000 0.000000 8.322400 -34.764700 2.109900 
53.420961 17.074985 -30.291822 -7.467342 -55.679166 4.071009 0.851440 -0.827915 -0.658383 -14.792472 7.271284 -4.995548 0.166413 8.184441 21.950345 -0.524759 4.616279 -5.359884 0.010600 -0.665300 -1.828300 -2.299085 0.657005 -1.072770 25.906802 0.131506 -6.858875 -0.905220 -11.007460 29.810251 2.070424 -10.514337 -13.257725 -0.039700 -1.286000 3.536200 3.637348 -0.526803 3.093288 1.096349 -0.616769 -1.089743 -2.110066 -0.201387 4.082106 -1.804341 -0.871661 -2.821521 6.994288 -2.230517 9.967767 0.872500 -0.749800 2.412700 -2.209415 -1.980205 -0.006995 -73.744478 3.385955 35.497090 14.708470 -29.505054 -6.013062 -0.989734 -2.284569 -26.753757 14.933048 6.943649 2.567900 -7.125000 0.000000 0.000000 -8.659300 38.732200 1.348900 4.681954 1.867311 -0.466285 75.599500 -4.064534 27.213167 -11.675678 25.950466 -4.300018 1.407621 0.815300 -0.983343 -15.060566 -4.032735 1.424000 7.125000 0.000000 0.000000 8.431300 -34.904400 2.109100 
53.422263 17.074876 -30.288567 -7.476562 -55.690953 4.066117 0.851850 -0.826656 -0.658829 -14.800655 7.283733 -4.977568 0.165866 8.182317 21.944934 -0.522639 4.609280 -5.365579 0.010200 -0.651100 -1.789300 -2.299905 0.655644 -1.073137 25.899687 0.132345 -6.839907 -0.905516 -11.005739 29.809046 2.085547 -10.566925 -13.294810 -0.034100 -1.192200 3.277700 3.685334 -0.512668 3.073633 1.094316 -0.598621 -1.086060 -2.140437 -0.190841 4.099345 -1.796582 -0.852380 -2.812196 6.988329 -2.204940 9.976598 0.868400 -0.736800 2.408600 -2.198005 -1.987200 -0.001713 -73.819795 3.194157 35.618221 14.791898 -29.562023 -6.042571 -0.989019 -2.281088 -26.833256 14.952100 6.940834 2.568500 -7.125000 0.000000 0.000000 -8.641700 38.725200 1.347600 4.673950 1.872752 -0.463722 75.636523 -4.034205 27.111868 -11.689547 25.965002 -4.308873 1.413002 0.804773 -0.893744 -15.139921 -3.991248 1.416900 7.125000 0.000000 0.000000 8.356700 -34.856900 2.099800 
53.423240 17.074876 -30.285638 -7.446868 -55.679126 4.033939 0.850787 -0.825918 -0.658606 -14.824667 7.294703 -4.966257 0.163451 8.178951 21.933429 -0.517186 4.589161 -5.353701 0.010000 -0.646200 -1.775800 -2.300945 0.654897 -1.073325 25.876781 0.143369 -6.821372 -0.905916 -11.004367 29.811322 2.092855 -10.601762 -13.363287 -0.030800 -1.132600 3.113800 3.699730 -0.519437 3.052384 1.096451 -0.608463 -1.084967 -2.136461 -0.196355 4.112488 -1.812362 -0.844491 -2.808967 6.976586 -2.192256 10.001716 0.862100 -0.729900 2.420400 -2.183924 -1.993056 -0.000228 -73.912596 3.027626 35.720037 14.890695 -29.639642 -6.082390 -0.987216 -2.279997 -26.914843 14.971486 6.967171 2.578500 -7.125000 0.000000 0.000000 -8.628800 38.750400 1.340200 4.672039 1.879290 -0.462053 75.609299 -3.999312 27.142755 -11.708400 25.985524 -4.317245 1.415415 0.804311 -0.907518 -15.171727 -3.987598 1.418600 7.125000 0.000000 0.000000 8.327800 -34.853800 2.093100 
53.424216 17.074876 -30.282600 -7.418172 -55.672353 4.001112 0.850005 -0.824922 -0.657482 -14.849269 7.305107 -4.954355 0.161580 8.176547 21.925009 -0.512679 4.573138 -5.348469 0.009900 -0.642800 -1.766500 -2.301433 0.653802 -1.072165 25.855535 0.165644 -6.795843 -0.905164 -11.001536 29.809467 2.100530 -10.640610 -13.445189 -0.027500 -1.070500 2.942800 3.717675 -0.530256 3.043285 1.098580 -0.622760 -1.086856 -2.136865 -0.204060 4.107617 -1.827918 -0.830491 -2.802297 6.960476 -2.170781 10.026728 0.853000 -0.718500 2.433900 -2.170149 -2.000819 0.000062 -74.012147 2.877907 35.801924 14.967546 -29.693936 -6.111162 -0.985749 -2.279486 -26.983280 14.987080 7.002877 2.591100 -7.125000 0.000000 0.000000 -8.620800 38.786000 1.331300 4.670218 1.888451 -0.461054 75.578236 -3.970935 27.199514 -11.720119 25.997703 -4.321066 1.421036 0.800774 -0.935767 -15.241090 -3.962405 1.416600 7.125000 0.000000 0.000000 8.262400 -34.826700 2.081800 
53.425084 17.074876 -30.279563 -7.396205 -55.674153 3.972882 0.848813 -0.823572 -0.656686 -14.869395 7.320605 -4.939510 0.159803 8.173418 21.914991 -0.508075 4.556772 -5.346265 0.009700 -0.634900 -1.744600 -2.303197 0.652898 -1.072137 25.840258 0.196420 -6.765985 -0.904505 -10.999382 29.809053 2.106622 -10.674978 -13.526084 -0.024800 -1.017100 2.795900 3.731800 -0.545492 3.032481 1.103687 -0.643648 -1.087294 -2.118732 -0.216040 4.113343 -1.857712 -0.810154 -2.807971 6.940347 -2.138965 10.051587 0.842200 -0.702100 2.449200 -2.155994 -2.007660 0.000400 -74.141537 2.718901 35.838639 15.013620 -29.716030 -6.124036 -0.984670 -2.275420 -27.022740 14.987769 7.023425 2.595700 -7.125000 0.000000 0.000000 -8.624400 38.802200 1.328400 4.673677 1.897169 -0.458704 75.522780 -3.922603 27.278923 -11.724261 25.999317 -4.320758 1.427662 0.796591 -0.973492 -15.319937 -3.925071 1.411600 7.125000 0.000000 0.000000 8.186600 -34.786600 2.070500 
53.425735 17.074551 -30.276634 -7.379117 -55.679452 3.944279 0.848092 -0.821410 -0.654638 -14.885073 7.344702 -4.924433 0.158818 8.170601 21.907495 -0.502676 4.537758 -5.345106 0.009500 -0.629900 -1.730900 -2.304721 0.651443 -1.070815 25.828947 0.228952 -6.732090 -0.904069 -10.997434 29.809374 2.109233 -10.696691 -13.594812 -0.023400 -0.986700 2.712300 3.750064 -0.565311 3.038697 1.108725 -0.669568 -1.090857 -2.106285 -0.230488 4.099457 -1.884285 -0.788009 -2.812024 6.917931 -2.104350 10.079771 0.829500 -0.684100 2.470300 -2.142329 -2.016768 -0.000862 -74.276797 2.576809 35.844457 15.032705 -29.709721 -6.123176 -0.983800 -2.269682 -27.037573 14.975726 7.035146 2.595200 -7.125000 0.000000 0.000000 -8.638300 38.807700 1.329400 4.676206 1.909070 -0.457761 75.471588 -3.883680 27.363221 -11.724144 25.995328 -4.317930 1.433210 0.792394 -1.005402 -15.385148 -3.888385 1.405400 7.125000 0.000000 0.000000 8.123200 -34.746700 2.062100 
53.426277 17.074225 -30.273704 -7.369884 -55.689383 3.920661 0.847862 -0.818907 -0.652174 -14.896079 7.373608 -4.910545 0.158484 8.168405 21.902958 -0.495927 4.513747 -5.346474 0.009100 -0.616200 -1.693400 -2.305996 0.649823 -1.068986 25.821391 0.260917 -6.698273 -0.903779 -10.995740 29.810010 2.110469 -10.710613 -13.644524 -0.022700 -0.973000 2.674400 3.773250 -0.582755 3.049453 1.112952 -0.691892 -1.095467 -2.101583 -0.243051 4.080377 -1.903564 -0.767458 -2.819516 6.896916 -2.072280 10.112147 0.816600 -0.667000 2.497200 -2.130244 -2.026547 -0.002779 -74.414590 2.436621 35.829853 15.021927 -29.671337 -6.106548 -0.984693 -2.263137 -27.023044 14.966089 7.044608 2.594200 -7.125000 0.000000 0.000000 -8.649300 38.810500 1.330500 4.677893 1.922209 -0.457809 75.433323 -3.847548 27.428356 -11.718226 25.984175 -4.312737 1.436826 0.789885 -1.029235 -15.423269 -3.867128 1.401700 7.125000 0.000000 0.000000 8.085800 -34.723300 2.057100 
53.426711 17.073683 -30.270992 -7.364107 -55.701640 3.900702 0.847383 -0.816406 -0.650443 -14.902619 7.411506 -4.900851 0.158701 8.166736 21.900148 -0.487045 4.482291 -5.345925 0.008600 -0.598500 -1.644600 -2.308087 0.648475 -1.068353 25.816114 0.283726 -6.668745 -0.904104 -10.994880 29.812202 2.107603 -10.706543 -13.665313 -0.023300 -0.984800 2.707100 3.787449 -0.602267 3.052923 1.119530 -0.717885 -1.098111 -2.078910 -0.258269 4.074160 -1.932663 -0.744173 -2.832923 6.876666 -2.036011 10.144537 0.804600 -0.647900 2.523500 -2.117993 -2.034596 -0.004025 -74.574060 2.288708 35.781390 14.983814 -29.605361 -6.075853 -0.986385 -2.252314 -26.977369 14.945049 7.028499 2.582600 -7.125000 0.000000 0.000000 -8.667300 38.783000 1.339300 4.682693 1.933353 -0.457011 75.390501 -3.801752 27.468197 -11.706852 25.965219 -4.305653 1.437758 0.789515 -1.026460 -15.426082 -3.860418 1.399900 7.125000 0.000000 0.000000 8.081900 -34.716300 2.057500 
53.427037 17.073140 -30.268388 -7.358805 -55.712892 3.881371 0.847257 -0.813913 -0.648196 -14.909234 7.447158 -4.891581 0.158871 8.165094 21.897504 -0.479792 4.456570 -5.344258 0.008300 -0.588600 -1.617500 -2.309415 0.646986 -1.066914 25.809455 0.300713 -6.643652 -0.904999 -10.994437 29.815570 2.106819 -10.707092 -13.679747 -0.023500 -0.989600 2.720200 3.804906 -0.616558 3.060451 1.123717 -0.736190 -1.101981 -2.073441 -0.268961 4.058677 -1.941451 -0.725069 -2.839696 6.857560 -2.006997 10.176433 0.789600 -0.632000 2.549100 -2.107534 -2.043506 -0.005124 -74.719035 2.148495 35.741055 14.926717 -29.519780 -6.035140 -0.989278 -2.242739 -26.916772 14.929553 7.019507 2.574500 -7.125000 0.000000 0.000000 -8.680800 38.764300 1.345400 4.684996 1.944991 -0.457285 75.376057 -3.767822 27.475408 -11.689533 25.939654 -4.296585 1.435795 0.792019 -1.017282 -15.389516 -3.879911 1.403200 7.125000 0.000000 0.000000 8.116200 -34.737500 2.062200 
